<svg version="1.1" preserveAspectRatio="none" xmlns="http://www.w3.org/2000/svg" width="500" height="500" viewBox="0 0 500 500"><rect width="100%" height="100%" fill="#F7F4F2" fill-opacity="1"/><svg viewBox="97.013 140.166 350.7494 294.0853" width="333" height="279.2033426144136" x="83.5px" y="110.3983px" xmlns="http://www.w3.org/2000/svg" xmlns:xlink="http://www.w3.org/1999/xlink" preserveAspectRatio="none"><defs></defs><style>.companyName {fill:#161616;fill-opacity:1;}.icon1 {fill:#161616;fill-opacity:1;}.icon2 {fill:#E5B7D2;fill-opacity:1;}.icon3 {fill:#848282;fill-opacity:1;}.icon3-str {stroke:#848282;stroke-opacity:1;}.text {fill:#161616;fill-opacity:1;}</style><g opacity="1" transform="rotate(0 206.3043 414.2513)">
<svg width="132.1668" height="20" x="206.3043" y="414.2513" version="1.1" preserveAspectRatio="none" viewBox="3.56 -29.2 251.88 38.120000000000005">
  <g transform="matrix(1 0 0 1 0 0)" class="text"><path id="id-6izo4zJp11" d="M6.36 0L3.56 0L3.56-28.36L6.36-28.36L6.36-11.88L22-28.40L25.08-28.40L13.48-15.92L25.68 0L22.60 0L11.72-14.28L6.36-8.72L6.36 0Z M38.28 0.40L38.28 0.40Q36 0.40 34.10-0.46Q32.20-1.32 30.80-2.82Q29.40-4.32 28.62-6.28Q27.84-8.24 27.84-10.48L27.84-10.48Q27.84-12.68 28.62-14.62Q29.40-16.56 30.78-18.02Q32.16-19.48 34.08-20.34Q36-21.20 38.24-21.20L38.24-21.20Q40.52-21.20 42.42-20.34Q44.32-19.48 45.68-18Q47.04-16.52 47.80-14.60Q48.56-12.68 48.56-10.52L48.56-10.52Q48.56-10.20 48.56-9.88Q48.56-9.56 48.52-9.44L48.52-9.44L30.68-9.44Q30.80-7.76 31.46-6.34Q32.12-4.92 33.16-3.88Q34.20-2.84 35.54-2.26Q36.88-1.68 38.40-1.68L38.40-1.68Q39.40-1.68 40.40-1.96Q41.40-2.24 42.24-2.72Q43.08-3.20 43.76-3.90Q44.44-4.60 44.80-5.44L44.80-5.44L47.16-4.80Q46.68-3.64 45.80-2.70Q44.92-1.76 43.76-1.06Q42.60-0.36 41.20 0.02Q39.80 0.40 38.28 0.40ZM30.64-11.52L45.96-11.52Q45.84-13.20 45.18-14.58Q44.52-15.96 43.50-16.96Q42.48-17.96 41.14-18.52Q39.80-19.08 38.28-19.08L38.28-19.08Q36.76-19.08 35.40-18.52Q34.04-17.96 33.02-16.96Q32-15.96 31.38-14.56Q30.76-13.16 30.64-11.52L30.64-11.52Z M63.36 0.40L63.36 0.40Q61.08 0.40 59.18-0.46Q57.28-1.32 55.88-2.82Q54.48-4.32 53.70-6.28Q52.92-8.24 52.92-10.48L52.92-10.48Q52.92-12.68 53.70-14.62Q54.48-16.56 55.86-18.02Q57.24-19.48 59.16-20.34Q61.08-21.20 63.32-21.20L63.32-21.20Q65.60-21.20 67.50-20.34Q69.40-19.48 70.76-18Q72.12-16.52 72.88-14.60Q73.64-12.68 73.64-10.52L73.64-10.52Q73.64-10.20 73.64-9.88Q73.64-9.56 73.60-9.44L73.60-9.44L55.76-9.44Q55.88-7.76 56.54-6.34Q57.20-4.92 58.24-3.88Q59.28-2.84 60.62-2.26Q61.96-1.68 63.48-1.68L63.48-1.68Q64.48-1.68 65.48-1.96Q66.48-2.24 67.32-2.72Q68.16-3.20 68.84-3.90Q69.52-4.60 69.88-5.44L69.88-5.44L72.24-4.80Q71.76-3.64 70.88-2.70Q70-1.76 68.84-1.06Q67.68-0.36 66.28 0.02Q64.88 0.40 63.36 0.40ZM55.72-11.52L71.04-11.52Q70.92-13.20 70.26-14.58Q69.60-15.96 68.58-16.96Q67.56-17.96 66.22-18.52Q64.88-19.08 63.36-19.08L63.36-19.08Q61.84-19.08 60.48-18.52Q59.12-17.96 58.10-16.96Q57.08-15.96 56.46-14.56Q55.84-13.16 55.72-11.52L55.72-11.52Z M90.08 0.40L90.08 0.40Q87.44 0.40 85.42-0.94Q83.40-2.28 82.16-4.32L82.16-4.32L82.16 8.52L79.44 8.52L79.44-20.84L81.88-20.84L81.88-16.80Q83.16-18.76 85.20-19.98Q87.24-21.20 89.64-21.20L89.64-21.20Q91.80-21.20 93.60-20.30Q95.40-19.40 96.72-17.90Q98.04-16.40 98.78-14.44Q99.52-12.48 99.52-10.40L99.52-10.40Q99.52-8.20 98.84-6.24Q98.16-4.28 96.90-2.80Q95.64-1.32 93.90-0.46Q92.16 0.40 90.08 0.40ZM89.32-2L89.32-2Q91-2 92.38-2.72Q93.76-3.44 94.74-4.62Q95.72-5.80 96.24-7.30Q96.76-8.80 96.76-10.40L96.76-10.40Q96.76-12.08 96.16-13.60Q95.56-15.12 94.52-16.28Q93.48-17.44 92.06-18.12Q90.64-18.80 89-18.80L89-18.80Q87.96-18.80 86.82-18.38Q85.68-17.96 84.70-17.26Q83.72-16.56 83.02-15.62Q82.32-14.68 82.16-13.64L82.16-13.64L82.16-7.24Q82.64-6.12 83.38-5.16Q84.12-4.20 85.06-3.50Q86-2.80 87.08-2.40Q88.16-2 89.32-2Z M146.04 0L143.24 0L143.24-23.32L132.88-5.28L131.24-5.28L120.88-23.32L120.88 0L118.08 0L118.08-28.40L120.96-28.40L132.04-8.96L143.20-28.40L146.04-28.40L146.04 0Z M162.80 0.40L162.80 0.40Q160.52 0.40 158.64-0.46Q156.76-1.32 155.38-2.80Q154-4.28 153.24-6.24Q152.48-8.20 152.48-10.36L152.48-10.36Q152.48-12.56 153.26-14.52Q154.04-16.48 155.42-17.96Q156.80-19.44 158.68-20.32Q160.56-21.20 162.80-21.20L162.80-21.20Q165.04-21.20 166.94-20.32Q168.84-19.44 170.22-17.96Q171.60-16.48 172.38-14.52Q173.16-12.56 173.16-10.36L173.16-10.36Q173.16-8.20 172.40-6.24Q171.64-4.28 170.26-2.80Q168.88-1.32 166.98-0.46Q165.08 0.40 162.80 0.40ZM155.24-10.32L155.24-10.32Q155.24-8.56 155.84-7.06Q156.44-5.56 157.46-4.42Q158.48-3.28 159.86-2.64Q161.24-2 162.80-2L162.80-2Q164.36-2 165.74-2.66Q167.12-3.32 168.16-4.46Q169.20-5.60 169.80-7.12Q170.40-8.64 170.40-10.40L170.40-10.40Q170.40-12.12 169.80-13.66Q169.20-15.20 168.16-16.34Q167.12-17.48 165.74-18.14Q164.36-18.80 162.80-18.80L162.80-18.80Q161.24-18.80 159.88-18.14Q158.52-17.48 157.48-16.32Q156.44-15.16 155.84-13.62Q155.24-12.08 155.24-10.32Z M187.64 0L184.80 0L176.32-20.84L179.12-20.84L186.28-2.52L193.48-20.84L196.12-20.84L187.64 0Z M204.20 0L201.48 0L201.48-20.84L204.20-20.84L204.20 0ZM204.20-25.20L201.48-25.20L201.48-29.20L204.20-29.20L204.20-25.20Z M229.32-12.20L229.32 0L226.60 0L226.60-11.64Q226.60-15.36 225.50-17.04Q224.40-18.72 222.12-18.72L222.12-18.72Q220.92-18.72 219.72-18.28Q218.52-17.84 217.50-17.04Q216.48-16.24 215.68-15.14Q214.88-14.04 214.52-12.76L214.52-12.76L214.52 0L211.80 0L211.80-20.84L214.28-20.84L214.28-16.12Q215.56-18.40 217.94-19.80Q220.32-21.20 223.12-21.20L223.12-21.20Q224.84-21.20 226.04-20.56Q227.24-19.92 227.96-18.76Q228.68-17.60 229.00-15.92Q229.32-14.24 229.32-12.20L229.32-12.20Z M245.08 0.28L245.08 0.28Q242.92 0.28 241.14-0.62Q239.36-1.52 238.06-3Q236.76-4.48 236.04-6.40Q235.32-8.32 235.32-10.36L235.32-10.36Q235.32-12.52 236.02-14.50Q236.72-16.48 238.00-17.96Q239.28-19.44 241.06-20.32Q242.84-21.20 245.00-21.20L245.00-21.20Q247.68-21.20 249.64-19.86Q251.60-18.52 253.00-16.48L253.00-16.48L253.00-20.84L255.44-20.84L255.44 0.08Q255.44 2.24 254.62 3.90Q253.80 5.56 252.42 6.68Q251.04 7.80 249.18 8.36Q247.32 8.92 245.24 8.92L245.24 8.92Q241.64 8.92 239.44 7.64Q237.24 6.36 235.88 4.20L235.88 4.20L237.56 2.88Q238.80 4.88 240.84 5.82Q242.88 6.76 245.24 6.76L245.24 6.76Q246.76 6.76 248.12 6.34Q249.48 5.92 250.50 5.10Q251.52 4.28 252.12 3.02Q252.72 1.76 252.72 0.08L252.72 0.08L252.72-4.04Q251.52-2.04 249.44-0.88Q247.36 0.28 245.08 0.28ZM245.84-2L245.84-2Q247.04-2 248.20-2.44Q249.36-2.88 250.30-3.62Q251.24-4.36 251.88-5.28Q252.52-6.20 252.72-7.16L252.72-7.16L252.72-13.60Q252.28-14.72 251.52-15.68Q250.76-16.64 249.80-17.32Q248.84-18 247.74-18.40Q246.64-18.80 245.52-18.80L245.52-18.80Q243.76-18.80 242.38-18.06Q241.00-17.32 240.04-16.12Q239.08-14.92 238.58-13.40Q238.08-11.88 238.08-10.32L238.08-10.32Q238.08-8.64 238.68-7.12Q239.28-5.60 240.34-4.46Q241.40-3.32 242.80-2.66Q244.20-2 245.84-2Z"/></g>
</svg>
</g><g opacity="1" transform="rotate(0 97.013 296.2513)">
<svg width="350.7494" height="100" x="97.013" y="296.2513" version="1.1" preserveAspectRatio="none" viewBox="0.1953 -28.3594 141.7383 40.4102">
  <g transform="matrix(1 0 0 1 0 0)" class="companyName"><path id="id-D6z1nYkh9" d="M5.21-3.20L5.21-3.20Q10.25-4.20 12.21-4.20L12.21-4.20Q12.93-4.20 13.03-3.75L13.03-3.75Q13.07-3.57 13.22-3.49Q13.38-3.40 13.54-2.71Q13.71-2.03 13.73-1.60L13.73-1.60L13.73-1.43Q13.73-0.74 13.22-0.64L13.22-0.64Q11.35-0.25 7.12 0.06Q2.89 0.37 2.09 0.49L2.09 0.49Q1.68 0.49 0.78 0.04L0.78 0.04Q0.61-0.14 0.40-0.59Q0.20-1.04 0.20-1.37Q0.20-1.70 0.57-2.44L0.57-2.44Q0.63-2.58 3.01-5.20L3.01-5.20Q3.59-5.82 6.06-8.00Q8.54-10.18 9.50-11.26Q10.47-12.34 12.89-14.86Q15.31-17.38 16.48-18.78Q17.66-20.18 17.66-20.76L17.66-20.76Q17.66-21.13 17.09-21.13Q16.52-21.13 15.71-20.79Q14.90-20.45 13.83-19.77L13.83-19.77Q11.31-18.14 8.98-14.88L8.98-14.88Q8.87-14.79 8.87-14.47L8.87-14.47Q8.71-14.08 8.20-13.83Q7.70-13.57 7.38-13.57Q7.07-13.57 6.59-13.78Q6.11-13.98 5.88-14.20Q5.64-14.41 5.64-15.02Q5.64-15.63 6.33-16.75Q7.01-17.87 8.24-19.13Q9.47-20.39 10.99-21.51Q12.50-22.64 14.38-23.38Q16.25-24.12 17.56-24.12Q18.87-24.12 19.49-23.55L19.49-23.55Q20.64-22.50 20.64-21.21Q20.64-19.92 19.42-18.05Q18.20-16.17 16.11-13.93Q14.02-11.68 12.17-9.84Q10.31-8.01 8.05-5.89Q5.78-3.77 5.21-3.20Z M37.01-22.75L37.01-22.75Q32.87-16.39 30.25-11.68L30.25-11.68Q34.32-12.09 34.72-12.09Q35.12-12.09 35.12-11.90Q35.12-11.72 34.13-10.29Q33.14-8.87 32.64-8.63L32.64-8.63Q31.99-8.50 28.30-8.16L28.30-8.16Q26.04-4.16 23.57 0.39L23.57 0.39Q23.32 0.98 21.50 1.31L21.50 1.31Q20.74 1.45 20.49 1.56L20.49 1.56Q20.27 1.56 20.02 1.32Q19.77 1.07 19.75 0.84L19.75 0.84Q20.63-1.04 24.55-7.87L24.55-7.87Q18.50-7.44 18.20-7.44L18.20-7.44Q17.56-7.44 17.56-9.10L17.56-9.10Q17.56-9.88 17.68-10.16L17.68-10.16Q18.38-11.80 22.26-15.25Q26.13-18.71 30.07-21.52Q34.00-24.34 35.08-24.51L35.08-24.51Q35.10-24.51 35.23-24.46Q35.37-24.41 35.74-24.29Q36.11-24.16 36.45-24.04L36.45-24.04Q36.56-23.96 36.68-23.70Q36.80-23.44 36.89-23.40L36.89-23.40Q37.05-23.09 37.05-22.94Q37.05-22.79 37.01-22.75ZM21.23-10.45L21.23-10.45Q23.59-10.90 26.54-11.29L26.54-11.29Q29.26-15.88 32.64-20.64L32.64-20.64Q30.57-18.93 26.25-15Q21.93-11.07 21.23-10.45Z M36.80-7.79L36.80-7.79L36.70-7.79Q36.31-7.75 35.93-8.01Q35.55-8.26 35.55-8.63Q35.55-9.00 35.75-9.30Q35.96-9.59 36.03-9.90Q36.09-10.21 36.73-10.80Q37.36-11.39 37.80-11.44Q38.24-11.48 39.36-11.56Q40.47-11.64 41.58-11.73Q42.70-11.82 43.73-11.82Q44.77-11.82 44.93-11.71Q45.10-11.60 45.30-11.18Q45.51-10.76 45.68-10.57Q45.86-10.37 45.86-9.93Q45.86-9.49 45.51-9.17Q45.16-8.85 44.72-8.78Q44.28-8.71 43.73-8.64Q43.18-8.57 42.51-8.51Q41.84-8.44 41.23-8.36Q40.63-8.28 39.84-8.13L39.84-8.13Q38.34-7.83 36.80-7.79Z M50.64-5.37L50.64-5.37L50.39-4.84Q50.39-4.28 51.98-3.76Q53.57-3.24 55.48-3.24Q57.38-3.24 59.67-3.81Q61.95-4.38 63.64-5.20Q65.33-6.02 66.44-6.91Q67.54-7.81 67.54-8.48L67.54-8.48Q67.54-9.32 65.59-10.04Q63.63-10.76 59.91-11.63Q56.19-12.50 54.46-13.83Q52.73-15.16 52.73-17.06Q52.73-18.96 54.10-20.70Q55.47-22.44 57.67-23.79Q59.86-25.14 62.46-26.19L62.46-26.19Q67.83-28.36 72.42-28.36L72.42-28.36Q74.18-28.36 75.53-28.05L75.53-28.05Q78.11-27.44 78.11-26.45Q78.11-25.45 77.93-25.09Q77.75-24.73 77.65-24.61Q77.54-24.49 77.37-24.38Q77.21-24.26 77.13-24.20L77.13-24.20Q76.27-23.48 72.42-23.30L72.42-23.30Q71.09-23.24 70.98-23.16Q70.86-23.09 70.77-23.09Q70.68-23.09 70.57-23.24Q70.45-23.40 70.45-23.75Q70.45-24.10 71.21-25.04L71.21-25.04Q68.83-24.90 66.12-23.95Q63.42-22.99 61.43-21.79Q59.43-20.59 58.11-19.42Q56.78-18.26 56.78-17.78Q56.78-17.30 57.07-16.99L57.07-16.99Q57.89-16.11 61.62-15.16L61.62-15.16Q65.49-14.16 66.78-13.55Q68.07-12.95 68.92-12.40Q69.77-11.86 70.27-11.29L70.27-11.29Q71.46-9.92 71.46-8.52Q71.46-7.11 70.71-5.88Q69.96-4.65 68.45-3.50Q66.93-2.34 64.88-1.45L64.88-1.45Q60.39 0.57 54.18 0.57L54.18 0.57Q49.65 0.57 48.40-1.84L48.40-1.84Q48.07-2.44 48.07-3.10Q48.07-3.75 48.37-4.28Q48.67-4.80 49.10-5.08L49.10-5.08Q49.94-5.61 50.29-5.61Q50.64-5.61 50.64-5.37Z M83.75-20.80L84.12-20.78L84.47-20.82Q84.77-20.82 84.94-20.31Q85.12-19.80 85.12-19.63Q85.12-19.45 84.73-18.96L84.73-18.96L79.16-10.49Q82.09-13.42 85.12-14.77L85.12-14.77Q86.29-15.27 87.24-15.27Q88.18-15.27 88.76-14.66Q89.34-14.04 89.34-13.13Q89.34-12.21 88.83-10.86Q88.32-9.51 87.45-7.99Q86.58-6.46 85.34-4.92Q84.10-3.38 82.74-2.13Q81.39-0.88 79.79-0.10Q78.18 0.68 76.97 0.68L76.97 0.68Q74.53 0.68 74.53-1.56L74.53-1.56Q72.25 1.93 69.26 6.72Q66.27 11.50 66.05 11.78Q65.84 12.05 65.69 12.05Q65.55 12.05 65.24 11.88Q64.94 11.70 64.61 11.29Q64.28 10.88 64.27 10.10Q64.26 9.32 64.73 8.52L64.73 8.52Q67.36 4.12 74.89-8.02Q82.42-20.16 83.05-20.57L83.05-20.57Q83.40-20.80 83.75-20.80L83.75-20.80ZM85.84-11.80L85.84-11.80Q85.84-12.21 85.45-12.21L85.45-12.21Q84.39-12.21 80.99-8.96Q77.58-5.72 75.57-3.05L75.57-3.05Q76.07-2.42 77.07-2.42Q78.07-2.42 79.65-3.50Q81.23-4.57 82.58-6.04Q83.93-7.52 84.88-9.14Q85.84-10.76 85.84-11.80Z M102.17-14.88Q102.75-14.88 103.37-14.36Q103.98-13.83 103.98-12.74Q103.98-11.66 103.22-9.93Q102.46-8.20 101.13-6.42Q99.80-4.63 98.21-3.06Q96.62-1.48 94.78-0.48Q92.93 0.53 91.43 0.53Q89.92 0.53 89.01-0.42Q88.11-1.37 88.11-3.06Q88.11-4.75 88.94-6.80Q89.77-8.85 91.07-10.42Q92.38-11.99 93.91-13.24L93.91-13.24Q97.09-15.80 99.49-15.80L99.49-15.80Q100.57-15.80 101.11-15.27L101.11-15.27Q101.31-15.10 101.31-14.96L101.31-14.96L101.31-14.84Q101.58-14.88 102.17-14.88ZM100.20-12.29L100.20-12.29L100.06-12.29Q99.38-12.29 99.38-13.28L99.38-13.28Q97.95-12.81 96.39-11.64Q94.82-10.47 93.59-8.87L93.59-8.87Q91.09-5.66 91.05-3.46L91.05-3.46Q91.05-2.36 91.86-2.36Q92.66-2.36 94.24-3.42Q95.82-4.47 97.37-6.43Q98.93-8.38 99.70-9.81Q100.47-11.25 100.47-11.77Q100.47-12.29 100.20-12.29Z M110.76-11.88L109.94-10.64Q114.55-15.88 117.79-15.88L117.79-15.88Q118.59-15.88 119.11-15.40Q119.63-14.92 119.63-14.16Q119.63-13.40 118.54-11.61Q117.46-9.82 116.54-8.59L116.54-8.59Q116.05-7.97 115.44-7.97Q114.82-7.97 114.48-8.42Q114.14-8.87 114.14-9.47L114.14-9.47Q114.14-10.82 115.59-12.52L115.59-12.52L115.55-12.56Q114.90-12.50 112.35-10.02Q109.80-7.54 108.02-5.58Q106.23-3.61 104.14-0.80L104.14-0.80Q103.54 0.04 103.12 0.04Q102.70 0.04 102.00-0.22Q101.31-0.49 101.16-0.61Q101.02-0.72 101.02-1.00Q101.02-1.27 101.17-1.63Q101.33-1.99 101.75-2.66Q102.17-3.32 103.02-4.80Q103.87-6.29 105.66-9.30Q107.46-12.30 107.81-12.93L107.81-12.93Q108.55-14.22 109.02-14.80L109.02-14.80Q109.90-15.92 111.99-15.92L111.99-15.92Q112.46-15.92 112.46-15.33L112.46-15.33Q112.46-14.41 110.76-11.88L110.76-11.88Z M130.04-25.04L130.96-25.16L131.76-24.96Q131.93-24.96 132.07-24.79Q132.21-24.61 132.21-24.45Q132.21-24.30 131.80-23.61Q131.39-22.93 130.83-22.06Q130.27-21.19 130.23-21.11L130.23-21.11Q131.76-21.23 132.39-21.23Q133.03-21.23 133.26-21.14Q133.50-21.05 133.80-20.65Q134.10-20.25 134.36-20.05Q134.61-19.84 134.61-19.43Q134.61-19.02 134.11-18.74Q133.61-18.46 133.05-18.40L133.05-18.40Q128.52-17.95 128.05-17.93L128.05-17.93Q126.46-15.51 123.62-10.38Q120.78-5.25 120.61-3.96L120.61-3.96Q120.53-3.38 120.53-3.01L120.53-3.01Q120.53-2.25 121.33-2.25Q122.13-2.25 123.11-2.86Q124.08-3.48 124.90-4.20L124.90-4.20Q127.09-6.15 127.25-6.15L127.25-6.15Q127.75-6.15 127.75-4.39L127.75-4.39Q127.75-3.44 126.88-2.68L126.88-2.68Q124.90-0.98 123.55-0.12Q122.21 0.74 120.86 0.74L120.86 0.74Q120.57 0.74 120.31 0.68L120.31 0.68Q118.75 0.39 118.02-0.46Q117.29-1.31 117.29-2.75Q117.30-4.20 118.15-6.26Q119.00-8.32 120.29-10.64L120.29-10.64Q122.40-14.43 124.51-17.75L124.51-17.75L123.77-17.66Q121.50-17.40 121.13-17.40L121.13-17.40L120.96-17.40Q120.39-17.40 119.86-17.63Q119.34-17.85 119.34-18.18Q119.34-18.52 119.62-18.83Q119.90-19.14 119.96-19.32L119.96-19.32Q120.10-19.75 120.99-20.27Q121.88-20.80 122.32-20.83Q122.77-20.86 123.19-20.88Q123.61-20.90 124.13-20.92Q124.65-20.94 124.92-20.96L124.92-20.96L126.68-21.04Q128.32-23.50 128.94-24.20Q129.55-24.90 129.65-24.97Q129.75-25.04 130.04-25.04L130.04-25.04Z M128.26-3.91L128.26-3.91L128.24-3.59Q128.24-3.11 128.61-2.75Q128.98-2.40 129.30-2.40L129.30-2.40Q131.64-2.40 133.45-3.11Q135.25-3.81 135.25-4.51L135.25-4.51Q135.25-4.84 134.60-5.09Q133.95-5.33 132.39-5.69Q130.84-6.05 130.14-6.26Q129.43-6.46 129.02-6.64Q128.61-6.82 128.18-7.13L128.18-7.13Q127.27-7.77 127.27-9.05Q127.27-10.33 128.21-11.59Q129.16-12.85 130.59-13.75Q132.01-14.65 133.65-15.33L133.65-15.33Q136.89-16.68 139.10-16.68L139.10-16.68Q141.27-16.68 141.78-15.74L141.78-15.74Q141.93-15.41 141.93-15L141.93-15L141.93-14.86Q141.93-13.83 141.49-13.24Q141.05-12.66 140.11-12.19Q139.16-11.72 138.60-11.72Q138.05-11.72 137.90-11.80Q137.75-11.88 137.66-12.00Q137.56-12.13 137.41-12.19Q137.27-12.25 137.27-12.48Q137.27-12.71 137.46-12.96Q137.66-13.20 137.73-13.48L137.73-13.48Q136.45-13.42 135.04-12.88Q133.63-12.34 132.63-11.68Q131.62-11.02 130.96-10.41Q130.29-9.80 130.29-9.52Q130.29-9.24 131.19-9.06L131.19-9.06Q135.23-8.26 136.50-7.68Q137.77-7.09 138.26-6.35Q138.75-5.61 138.75-5L138.75-5Q138.75-3.75 137.75-2.64Q136.76-1.52 135.29-0.82L135.29-0.82Q132.15 0.72 129.81 0.72Q127.48 0.72 126.59 0.01Q125.70-0.70 125.70-1.68Q125.70-2.66 126.20-3.49Q126.70-4.32 127.48-4.32Q128.26-4.32 128.26-3.91Z"/></g>
</svg>
</g><g opacity="1" transform="rotate(0 202.2378 140.166)">
<svg width="140.2998" height="126.0853" x="202.2378" y="140.166" version="1.1" preserveAspectRatio="none" viewBox="20.02520179748535 28.12786865234375 159.94825744628906 143.74313354492188">
  <g transform="matrix(1 0 0 1 0 0)"><g><path d="M154.759 170.372c12.584 0 18.407-5.08 21.075-9.342 3.459-5.524 3.549-12.597.246-19.403-.182-.374-.37-.737-.564-1.093-.559-8.29-7.562-12.88-12.732-16.269a113.79 113.79 0 0 1-3.368-2.266l-.004-.003c1.611-2.895 2.26-6.258 1.706-9.487-.822-4.787-4.126-8.614-8.863-10.285a10.596 10.596 0 0 0-1.713-4.862 10.716 10.716 0 0 0-.053-8.887 10.659 10.659 0 0 0-.531-.998c1.124-2.345 1.45-4.939.87-7.496-1.896-8.355-10.821-10.583-21.157-13.163-.641-.159-1.329-.331-2.031-.51-1.139-4.765-3.831-11.087-11.42-13.371-3.603-1.087-7.568-.812-11.164.771-.226.1-.448.202-.665.308a51.83 51.83 0 0 1-.738-.604c-5.56-4.639-9.962-10.453-11.223-12.542-1.23-2.038-2.915-4.83-5.403-7.118-4.604-4.234-10.581-5.281-15.989-2.802-1.072.491-2.101 1.125-3.138 1.932-4.854-1.151-8.983.792-11.473 3.361-2.632 2.721-3.896 6.392-3.571 10.142-.659.666-1.312 1.338-1.959 2.013-.955.999-2.341 2.447-3.743 4.292l-7.116 3.573c-5.722 2.874-23.803 17.93-16.998 33.485 3.673 8.396 21.852 24.958 36.456 37.372 14.929 12.692 34.435 27.946 44.408 32.694 16.261 7.747 39.322 10.558 50.855 10.558zM78.672 81.773a30 30 0 0 0 4.947 4.854c3.448 2.663 7.092 4.219 10.308 5.591 1.395.596 2.712 1.158 3.856 1.747 3.411 1.756 5.873 4.186 6.754 6.665.569 1.604.753 3.904.948 6.34.067.846.136 1.69.218 2.53l.167 1.756c.197 2.104.396 4.226.72 6.355-11.126-9.562-22.402-21.298-30.22-30.91l.049-.083a29.156 29.156 0 0 0 2.253-4.845zM59.453 97.529c2.92 3.669 6.389 7.744 10.24 11.983-6.211-5.37-12.066-10.66-16.85-15.238 1.417.821 2.915 1.459 4.495 1.862a3.964 3.964 0 0 1 2.115 1.393z" data-color="1" class="icon1"></path><path d="M178.895 144.645c-.458-1.438-1.136-2.758-1.704-4.146-.426-1.04-.452-2.383-.797-3.555-.69-2.349-1.932-4.461-3.482-6.341-3.129-3.795-7.481-6.458-11.583-9.138 1.748-3.972 2.008-8.474.269-12.534-1.546-3.608-4.476-6.235-8.017-7.765a12.763 12.763 0 0 0-1.414-3.959c1.132-3.264.988-6.698-.576-9.81 2.319-6.038.158-12.435-5.174-16.125-5.09-3.523-11.624-4.742-17.566-6.207-1.173-4.266-3.311-8.245-6.919-10.94-5.033-3.759-11.607-4.16-17.292-1.845-4.227-3.527-8.223-7.741-11.082-12.437-3.555-5.839-8.299-11.117-15.545-11.674-3.761-.289-7.45.964-10.481 3.143-4.138-.687-8.249.388-11.451 3.187-3.218 2.813-4.87 7.058-4.739 11.286-1.448 1.469-2.892 2.951-4.212 4.537-.317.381-.6.81-.937 1.173-.319.187-.67.335-.999.5-1.946.977-3.899 1.941-5.838 2.932-4.389 2.242-8.298 5.886-11.477 9.597-4.391 5.125-8.004 11.546-7.849 18.486.146 6.498 3.781 11.538 7.848 16.273 5.37 6.252 11.422 11.931 17.515 17.468 6.537 5.94 13.247 11.694 20.065 17.309 6.849 5.641 13.814 11.156 20.987 16.379 5.504 4.008 11.165 8.115 17.369 10.985 7.689 3.557 15.927 5.861 24.218 7.512 7.422 1.478 14.98 2.481 22.543 2.831 1.393.065 2.788.102 4.183.104 8.487-.042 17.61-2.486 22.37-10.085 3.198-5.101 3.57-11.479 1.767-17.141zM46.253 51.465l-.029.015c.135-.12.196-.117.029-.015zM175.422 158.68a16.188 16.188 0 0 1-5.989 6.642c-4.367 2.737-9.603 3.525-14.674 3.55-8.946-.015-17.944-1.193-26.696-2.983-9.44-1.931-19.053-4.614-27.412-9.527-8.598-5.053-16.573-11.243-24.386-17.414a562.778 562.778 0 0 1-25.503-21.398c-7.638-6.804-15.35-13.782-21.864-21.698-2.165-2.631-4.274-5.451-5.235-8.766-1.185-4.087-.591-8.396 1.086-12.258 2.884-6.643 8.489-12.625 14.609-16.451 1.998-1.249 4.197-2.206 6.299-3.261.951-.478 2.09-.847 2.79-1.669.941-1.104 1.843-2.227 2.839-3.285.436-.463.876-.921 1.318-1.377.491-.507 1.213-1.016 1.545-1.643.321-.606.153-1.302.155-1.959.001-.658.052-1.314.168-1.962a11.496 11.496 0 0 1 1.433-3.846c1.269-2.134 3.25-3.848 5.592-4.7a10.355 10.355 0 0 1 3.625-.63c.657.004 1.292.08 1.938.187 1.092.181 1.404.054 2.286-.567 2.162-1.523 4.684-2.476 7.343-2.534 5.816-.127 10.2 3.851 13.185 8.462 2.26 3.491 4.587 6.769 7.431 9.833a57.779 57.779 0 0 0 6.024 5.651c.566.458 1.158.547 1.818.235 4.995-2.366 11.132-1.977 15.484 1.578 3.032 2.477 4.656 6.093 5.562 9.818.121.496.555.923 1.048 1.048 5.867 1.488 12.438 2.558 17.541 6.022 2.034 1.381 3.633 3.321 4.358 5.689.571 1.868.625 3.82.094 5.704-.222.785-.858 1.686-.747 2.508.117.869.829 1.737 1.089 2.593.593 1.953.517 4.007-.17 5.927-.424 1.184-.297 1.59.301 2.679a9.117 9.117 0 0 1 1.051 3.348c.081.717.419 1.197 1.101 1.446 3.081 1.129 5.679 3.383 6.998 6.418 1.571 3.615 1.102 7.736-.737 11.151-.401.745-.157 1.589.538 2.052 3.57 2.38 7.39 4.623 10.477 7.634 1.484 1.448 2.765 3.075 3.664 4.952a13.259 13.259 0 0 1 1.039 3.232c.09.471.098.954.181 1.423.146.824.621 1.517.971 2.276 2.272 4.93 2.865 10.879.432 15.87z" data-color="2" class="icon2"></path><path d="M105.528 118.672c1.197 1.031 2.725.016 2.507-1.459-.569-3.841-.823-7.729-1.162-11.595-.178-2.027-.338-4.142-1.151-6.031-.738-1.715-1.982-3.195-3.401-4.393-3.385-2.858-7.655-4.139-11.589-6.029-4.121-1.98-7.695-4.587-10.657-8.058a1.286 1.286 0 0 0-.414-.463c-.59-.638-1.354-.502-1.865-.022a1.523 1.523 0 0 0-.572.753 27.921 27.921 0 0 1-2.151 4.569c-.366.623-.192 1.295.235 1.818 9.098 11.161 19.313 21.516 30.22 30.91zM79.149 84.553c2.584 2.709 5.6 4.929 8.954 6.649 3.755 1.925 8.039 3.085 11.459 5.611 1.396 1.031 2.765 2.374 3.448 4.003.795 1.894.812 4.138.975 6.154.186 2.307.388 4.617.64 6.921-9.48-8.422-18.392-17.575-26.449-27.357a31.04 31.04 0 0 0 .973-1.981z" data-color="2" class="icon2"></path><path d="M60.514 96.468c-.869-1.026-1.95-1.537-3.219-1.899-1.304-.372-2.518-.921-3.695-1.591-1.458-.83-3.072 1.156-1.818 2.356 5.474 5.234 11.123 10.284 16.85 15.238 1.455 1.259 3.43-.68 2.121-2.121-3.53-3.891-6.963-7.873-10.239-11.983z" data-color="2" class="icon2"></path><path d="M166.43 143.056c.081-.461.121-.944.121-1.45 0-4.109-4.031-6.752-8.699-9.812a121.447 121.447 0 0 1-3.641-2.452 76.996 76.996 0 0 1-8.496-7.001c2.487-1.578 4.133-2.755 4.191-2.8 1.706-1.329 2.668-3.595 2.339-5.509-.273-1.592-1.371-2.784-3.09-3.355-1.035-.346-2.177-.402-3.448-.165l-8.705 2.133a84.033 84.033 0 0 1-1.446-1.938l.022-.018c2.615-2.211 5.319-4.496 7.186-6.204.557-.51.707-1.305.373-1.98a1.667 1.667 0 0 0-1.804-.908c-1.465.262-3.629.806-5.92 1.381-1.381.347-2.838.713-4.255 1.046a87.256 87.256 0 0 1-.929-1.596l11.666-8.162c.583-.498.756-1.3.433-1.995a1.677 1.677 0 0 0-1.802-.952l-14.651 2.386-.022-.052c5.317-2.528 10.871-5.346 14.736-8.54 1.215-1.004 1.707-2.061 1.462-3.141-.625-2.757-5.918-4.266-14.562-6.422-2.691-.672-5.441-1.357-7.71-2.082a86.314 86.314 0 0 1-.32-1.953c-.522-3.424-1.312-8.598-5.834-9.961-1.553-.467-3.309-.328-4.942.391-1.727.76-3.072 1.93-4.204 3.248-2.876-1.915-5.037-3.572-6.592-4.869-6.988-5.83-11.871-12.662-13.163-14.803-2.06-3.413-5.172-8.573-9.935-6.391-.468.214-.935.513-1.469.939a160.303 160.303 0 0 0-4.079 3.366 17.67 17.67 0 0 0-2.163-1.315c-.698-.356-2.551-1.307-4.187.385-.942.973-1.301 2.455-.937 3.871.249.967.527 1.927.826 2.88a161.07 161.07 0 0 0-5.381 5.364c-3.382 3.535-6.81 7.824-6.585 12.835.136 3.035 3.842 8.327 7.959 13.942.848 1.157 1.581 2.156 2.038 2.843.292.438.597.886.914 1.342-.329.046-.661.05-.996.016-6.47-.668-13.185-14.505-15.254-20.715a.999.999 0 0 0-1.398-.577c-3.108 1.561-16.814 12.642-12.792 21.835 5.067 11.583 60.576 57.972 76.488 65.549 14.814 7.054 36.684 9.683 46.989 9.683 6.796 0 11.32-1.722 13.447-5.118 2.526-4.034.686-8.825-.224-10.697a14.28 14.28 0 0 0-1.555-2.502zm-20.3-30.59c.866-.162 1.694-.127 2.394.108 1.015.338 1.604.942 1.751 1.797.203 1.18-.484 2.725-1.597 3.592-.907.705-2.47 1.777-4.397 2.98a83.591 83.591 0 0 1-5.917-6.573l7.766-1.904zm-10.23-7.549c1.707-.428 3.342-.839 4.642-1.122-1.733 1.544-3.966 3.432-6.146 5.274a89.333 89.333 0 0 1-2.141-3.251c1.225-.292 2.463-.603 3.645-.901zm-1.012 8.246l-3.123.765c.714-.613 1.474-1.259 2.263-1.927.283.39.569.778.86 1.162zm4.601-19.649l-10.232 7.157a91.373 91.373 0 0 1-2.537-5.079l12.769-2.078zm-10.378 10.972c-.89.19-1.738.355-2.509.479l1.984-1.388c.174.305.348.606.525.909zm-2.107-26.995c5.056 1.262 12.696 3.168 13.095 4.924.087.386-.52.938-.786 1.157-3.67 3.033-9.054 5.769-14.237 8.235a90.265 90.265 0 0 1-4.877-16.114c2.057.613 4.396 1.197 6.805 1.798zm-17.518-13.716c1.198-.527 2.462-.636 3.56-.306 3.063.924 3.82 4.326 4.434 8.347.045.296.092.592.14.886a14.65 14.65 0 0 1-1.278-.578c-4.021-2.085-7.387-4.051-10.173-5.829.93-1.047 1.998-1.939 3.317-2.52zM74.565 41.632c.403-.321.738-.538 1.054-.683 2.907-1.325 5.065 1.751 7.391 5.604 1.937 3.209 7.155 9.934 13.594 15.305 1.576 1.315 3.754 2.988 6.645 4.918-.535.753-1.025 1.52-1.499 2.259a1 1 0 1 0 1.685 1.078 53.06 53.06 0 0 1 1.489-2.241c2.869 1.837 6.341 3.871 10.498 6.026.739.383 1.618.745 2.603 1.093a92.003 92.003 0 0 0 5.244 17.67l-1.112.522-2.12.997a1.243 1.243 0 0 0-.654 1.532c.204.612.81.964 1.409.845l3.885-.633a92.96 92.96 0 0 0 2.934 5.897l-3.023 2.114a1.76 1.76 0 0 0-.524 2.076 1.768 1.768 0 0 0 1.862 1.071c1.234-.155 2.711-.442 4.276-.79a91.25 91.25 0 0 0 2.665 4.07 281.223 281.223 0 0 0-4.134 3.551c-.494.437-.482 1.46-.232 1.936.26.497.802.74 1.347.607l6.378-1.563a85.98 85.98 0 0 0 6.302 7.119c-6.84 4.078-16.588 8.805-19.24 6.155-5.279-5.279-5.776-10.589-6.464-17.937l-.171-1.801c-.076-.776-.138-1.556-.2-2.336-.243-3.039-.494-6.181-1.547-9.147-1.834-5.164-6.126-9.697-12.085-12.765-1.496-.771-3.06-1.438-4.573-2.084-2.862-1.222-5.566-2.375-7.9-4.178-5.21-4.026-7.69-10.626-10.087-17.009l-.384-1.021c-2.155-5.714-4.757-11.383-9.039-15.187a154.482 154.482 0 0 1 3.727-3.07zm-5.266 4.393c4.094 3.529 6.608 9.023 8.702 14.572l.383 1.02c2.496 6.645 5.077 13.515 10.737 17.888 2.537 1.96 5.486 3.219 8.338 4.436 1.48.632 3.012 1.285 4.443 2.021 5.505 2.834 9.453 6.974 11.116 11.657.966 2.718 1.206 5.727 1.438 8.637.063.792.126 1.583.204 2.37l.17 1.794c.7 7.473 1.252 13.375 7.042 19.164 3.897 3.899 15.084-1.875 22.092-6.151a79.018 79.018 0 0 0 9.091 7.541c1.253.889 2.498 1.705 3.701 2.493 4.071 2.669 7.342 4.813 7.752 7.556-3.122-2.73-8.233-4.93-16.596-4.93a1 1 0 1 0 0 2c7.501 0 13.062 1.873 16.322 5.457-.354.97-1.007 1.755-1.969 2.376-7.568 4.887-31.513-1.997-36.537-4.267-18.878-8.525-47.899-37.393-60.911-55.181 1.376-.916 2.654-2.382 3.824-4.39 2.694-4.625 3.441-10.192 2.103-15.679-.892-3.656-2.234-7.212-3.531-10.65-.731-1.938-1.477-3.915-2.143-5.916a159.114 159.114 0 0 1 4.229-3.818zm-4.974-2.128c.238-.245.456-.368.734-.368.279 0 .621.124 1.105.372.524.269 1.027.565 1.511.888a159.904 159.904 0 0 0-3.271 2.943 53.13 53.13 0 0 1-.515-1.854c-.193-.746-.026-1.505.436-1.981zm-3.942 36.318c-2.788-3.803-7.454-10.167-7.574-12.85-.19-4.246 2.787-7.971 6.032-11.362a159.651 159.651 0 0 1 4.631-4.644 184.407 184.407 0 0 0 1.87 5.104c1.276 3.383 2.596 6.881 3.459 10.42 1.215 4.98.545 10.022-1.888 14.197-1.032 1.771-2.124 3.027-3.268 3.763a82.344 82.344 0 0 1-1.173-1.713c-.482-.722-1.227-1.738-2.089-2.915zm106.128 74.978c-1.712 2.734-5.776 4.18-11.752 4.18-10.88 0-32.385-2.944-46.13-9.489-16.743-7.972-71.086-54.42-75.515-64.543-2.964-6.776 6.703-15.912 10.87-18.661 2.309 6.246 8.946 20.124 16.536 20.908.848.087 1.669.01 2.463-.23 6.113 8.413 15.738 19.215 25.949 29.059 13.617 13.128 26.392 22.739 35.972 27.065 4.475 2.021 29.662 9.794 38.444 4.125.963-.621 1.71-1.376 2.24-2.258.215.349.413.709.594 1.082.765 1.572 2.325 5.574.329 8.762z" data-color="2" class="icon2"></path></g></g>
</svg>
</g></svg></svg>